<?xml version="1.0" encoding="utf-8"?>
<!-- Generator: Adobe Illustrator 26.1.0, SVG Export Plug-In . SVG Version: 6.00 Build 0)  -->
<!DOCTYPE svg PUBLIC "-//W3C//DTD SVG 1.1//EN" "http://www.w3.org/Graphics/SVG/1.1/DTD/svg11.dtd" [
	<!ENTITY ns_extend "http://ns.adobe.com/Extensibility/1.0/">
	<!ENTITY ns_ai "http://ns.adobe.com/AdobeIllustrator/10.0/">
	<!ENTITY ns_graphs "http://ns.adobe.com/Graphs/1.0/">
	<!ENTITY ns_vars "http://ns.adobe.com/Variables/1.0/">
	<!ENTITY ns_imrep "http://ns.adobe.com/ImageReplacement/1.0/">
	<!ENTITY ns_sfw "http://ns.adobe.com/SaveForWeb/1.0/">
	<!ENTITY ns_custom "http://ns.adobe.com/GenericCustomNamespace/1.0/">
	<!ENTITY ns_adobe_xpath "http://ns.adobe.com/XPath/1.0/">
]>
<svg version="1.1" id="Layer_1" xmlns:x="&ns_extend;" xmlns:i="&ns_ai;" xmlns:graph="&ns_graphs;"
	 xmlns="http://www.w3.org/2000/svg" xmlns:xlink="http://www.w3.org/1999/xlink" x="0px" y="0px" viewBox="0 0 943.66 1277.62"
	 style="enable-background:new 0 0 943.66 1277.62;" xml:space="preserve">
<style type="text/css">
	.st0{clip-path:url(#SVGID_00000081611993410879828050000014402984182296971423_);}
	.st1{fill:#9A08DD;}
	.st2{fill:#F2059F;}
	.st3{fill:#0197F7;}
	.st4{fill:#00F0C5;}
	.st5{fill:#FFF200;}
	.st6{clip-path:url(#SVGID_00000117642285371439340940000007458407245015941262_);}
</style>
<switch>
	
	<g i:extraneous="self">
		<g>
			
				
			<g>
				<g>
					<g>
						<defs>
							<path id="SVGID_1_" d="M186.71,136.34v1005.68l-41.51,40.76V94.83 M240.58,190.96l-40.76-40.76v55.58v111.16v811.5
								l40.76-40.76 M756.95,136.34v1005.68l41.51,40.76V94.83 M703.08,1087.68l40.76,40.76V312V200.84V150.2l-40.76,40.76
								 M479.15,457.3c0,9.67,7.84,17.51,17.51,17.51s17.51-7.84,17.51-17.51c0-9.67-7.84-17.51-17.51-17.51
								S479.15,447.63,479.15,457.3z M528.74,457.93c0,9.67,7.84,17.51,17.51,17.51s17.51-7.84,17.51-17.51
								c0-9.67-7.84-17.51-17.51-17.51S528.74,448.25,528.74,457.93z M493.65,374.63c0,9.67,7.84,17.51,17.51,17.51
								c9.67,0,17.51-7.84,17.51-17.51c0-9.67-7.84-17.51-17.51-17.51C501.49,357.11,493.65,364.95,493.65,374.63z M416.79,374.63
								c0,9.67,7.84,17.51,17.51,17.51c9.67,0,17.51-7.84,17.51-17.51c0-9.67-7.84-17.51-17.51-17.51
								C424.63,357.11,416.79,364.95,416.79,374.63z M381.28,457.93c0,9.67,7.84,17.51,17.51,17.51c9.67,0,17.51-7.84,17.51-17.51
								c0-9.67-7.84-17.51-17.51-17.51C389.12,440.41,381.28,448.25,381.28,457.93z M455.01,540.27c0,9.67,7.84,17.51,17.51,17.51
								c9.67,0,17.51-7.84,17.51-17.51c0-9.67-7.84-17.51-17.51-17.51C462.85,522.76,455.01,530.6,455.01,540.27z M431.24,457.93
								c0,9.67,7.84,17.51,17.51,17.51c9.67,0,17.51-7.84,17.51-17.51c0-9.67-7.84-17.51-17.51-17.51
								C439.08,440.41,431.24,448.25,431.24,457.93z M510.71,387.96l-1.67-0.37l-12.27,54.79l1.67,0.37L510.71,387.96z
								 M538.29,443.35l-90.33-63.26l-0.98,1.4l90.33,63.26L538.29,443.35z M503.35,387.25l-1.33-1.07l-47.68,59.02l1.33,1.07
								L503.35,387.25z M544.09,443.71l-24.12-56.27l-1.57,0.67l24.12,56.27L544.09,443.71z M498.11,381.48l-1-1.38l-89.7,64.95
								l1,1.38L498.11,381.48z M426.89,388.1l-1.58-0.64l-22.85,56.27l1.58,0.64L426.89,388.1z M490.7,444.57l-45.74-57.33
								l-1.33,1.07l45.74,57.33L490.7,444.57z M496.09,473.71l-1.63-0.51l-16.43,52.04l1.63,0.51L496.09,473.71z M546.84,474.07
								l-1.17-1.24l-62.61,59.24l1.17,1.24L546.84,474.07z M467.07,525.21l-18.8-52.04l-1.61,0.58l18.8,52.04L467.07,525.21z
								 M461.81,532.92l-60.93-58.72l-1.19,1.23l60.93,58.72L461.81,532.92z M449.59,442.38l-12.5-54.79l-1.66,0.38l12.5,54.79
								L449.59,442.38z M463.31,926.1c-1.74,1.91-3.79,2.33-5.94,0.97c-2.53-1.61-2.35-4.16-1.18-6.34c2.11-3.9,5.61-6.45,9.9-7.26
								c2.95-0.56,3.43-1.96,3.41-4.52c-0.11-14.71-0.09-29.42-0.16-44.13c-0.01-1.14,0.45-2.47-0.64-3.39
								c-1.1-0.93-13.51,0.17-14.61,1.33c-5.05,5.27-11.06,8.04-18.44,6.83c-2.93-0.48-5.59-1.8-5.19-5.46
								c0.41-3.8,3.21-4.31,6.26-3.72c3.92,0.76,7.76,0,9.75-3.17c1.91-3.04-2.46-4.39-3.68-6.73c-1.45-2.79-3.39-5.53-0.27-8.03
								c3.59-2.88,5.71-0.18,7.72,2.66c3.67,5.18,8.76,7.39,15.11,7.01c2.91-0.18,4.22-1.09,4.17-4.33
								c-0.19-12.29-0.18-24.58-0.04-36.87c0.03-3.09-0.55-4.11-3.99-3.76c-8.53,0.85-15.2-2.79-20.02-9.78
								c-1.76-2.55-3.53-5.64-0.33-8.02c3.36-2.5,6.14-0.58,7.75,2.76c2.06,4.28,6.44,4.82,10.08,6.14c2.64,0.96,6.1,0.12,6.31-3.62
								c0.37-6.59,0.83-13.21-3.46-19.17c-6.68-9.29-19.68-13.4-29.46-8.13c-10.29,5.55-16.01,15.98-12.6,27.45
								c0.87,2.93-0.05,4.94-2.1,5.75c-2.56,1.01-5.23,0.34-5.81-3.26c-0.18-1.16-1.01-2.28-0.99-3.41c0.05-3.3-2.16-2.86-4.11-2.61
								c-11.36,1.41-20.03,17.02-15.68,27.63c1.76,4.3,3.77,6.77,8.81,5.12c1.84-0.6,4.06-0.03,5.9-0.64
								c2.57-0.85,3.1-0.1,3.34,2.37c0.49,5.03-1.84,6.58-6.56,7.05c-22.32,2.23-32.39,27.27-19.67,43.34
								c2.84,3.59,6.2,8.59,10.62,7.54c4.84-1.14,6.28-6.83,6.34-11.96c0.04-3.23,1.85-5.04,4.86-4.91
								c3.22,0.14,4.36,2.71,4.22,5.57c-0.17,3.61-0.68,7.21-2.54,10.45c-1.04,1.82-1.97,3.52,0.44,5.18
								c1.95,1.34,3.03,3.15,1.67,5.67c-1.26,2.34-3.27,2.68-5.61,2.66c-5.11-0.03-9.83-1.78-14.57-3.52
								c-3.49,16.22,3.46,29.26,17.64,34.03c3.7,1.25,6.15,1.69,6-3.54c-0.08-3.02,1.27-5.87,2.64-8.57
								c1.15-2.28,3.19-3.3,5.53-2.25c2.27,1.02,3.15,3.16,2.2,5.57c-1.09,2.77-1.15,5.73-1.79,8.5
								c-2.26,9.8,3.49,20.49,13.56,25.22c11.65,5.47,20.09,3.19,29.17-4.39c1.29-1.08,2.07-2.42,2.07-4.16
								c-0.01-6.99,0-13.99,0-21.05C466.06,922.07,464.88,924.38,463.31,926.1z M476.05,941.74c0,2.06,0.67,3.5,2.16,5.18
								c6.07,6.84,15.55,9.08,25.59,6.48c7.74-2,17.05-13.6,17.33-20.96c0.19-4.89-0.09-9.58-2.13-14.16
								c-1.11-2.5-0.27-4.89,2.49-5.91c2.56-0.94,4.42,0.48,5.28,2.73c1.14,2.98,2.36,6.09,2.62,9.22c0.29,3.45,1.36,3.88,4.49,3.08
								c13.41-3.43,22.45-16.55,20.03-31.69c-0.49-3.09-1.45-2.92-3.84-2c-4.13,1.58-8.42,2.93-12.92,2.58
								c-4.27-0.33-6.87-4.92-3.93-6.91c4.07-2.75,2.5-4.87,1.13-7.94c-1.13-2.52-1.7-5.36-2.07-8.12
								c-0.44-3.32,0.55-6.39,4.48-6.46c3.38-0.06,4.99,2.41,4.77,5.7c-0.26,3.93,1.7,6.81,3.92,9.69c1.64,2.13,3.13,2.35,5.58,0.94
								c13.77-7.92,16.84-28.2,6.52-40.33c-5.48-6.44-12.06-9.54-20.15-10.17c-2.97-0.23-5.32-1.29-5.13-4.61
								c0.19-3.19,2.59-4.32,5.53-4.21c2.21,0.08,4.44,0.18,6.59,0.62c1.6,0.33,2.76,0.1,3.7-1.18c9.19-12.49,2.18-27.11-8.99-30.99
								c-4.83-1.68-8.94-2.39-9.57,4.59c-0.23,2.55-1.67,4.25-4.38,3.83c-2.93-0.46-3.84-2.45-3.17-5.32
								c0.16-0.66-0.58-1.53-0.42-2.2c2.69-11.48-1.76-19.26-11.71-25.15c-14.15-8.38-32.51,2.71-33.66,17.07
								c-0.69,8.61-0.34,17.32-0.08,25.98c0.2,6.77,10.57,15.54,17.32,14.67c6.83-0.87,12.47,0.9,17.6,5.53
								c2.46,2.23,4.25,3.86,1.65,6.98c-2.56,3.07-5.12,2.69-7.61,0c-3.21-3.46-7.07-4.25-11.75-3.06c0.46,2.25,0.59,4.52,1.4,6.52
								c1.29,3.16-1.21,4.76-2.54,6.65c-1.14,1.61-3.28,1.07-5.04,0.44c-2.82-1-2.38-3.36-2.21-5.54c0.39-4.92-1.1-9.14-4.6-12.61
								c-0.95-0.95-1.83-2.54-3.35-2.09c-1.86,0.55-0.94,2.41-0.95,3.66c-0.05,20.35,0.06,40.7-0.12,61.05
								c-0.03,3.49,1.34,5.05,4.3,6.17c7.29,2.75,12.84-1.33,12.89-9.72c0.02-3.47,0.89-6.45,4.86-6.48c4-0.04,4.03,3.35,3.93,6.16
								c-0.1,2.69-0.71,5.35-1.09,7.98c1.88,0.52,2.79-0.96,4.13-1.31c2.26-0.59,4.08,0.02,5.06,2.08c0.82,1.71,0.71,3.51-0.88,4.96
								c-6.24,5.68-23.72,9.19-33.09,4.21C476.06,919.21,476.07,930.47,476.05,941.74z M460.73,669.45h7.82v27.79
								c0,2.75,2.38,4.98,5.32,4.98h2.33c3.02,0,5.46-2.29,5.46-5.12v-27.65h7.25c0,0,12.83-6.73,12.42-13.26v-17.16
								c0.41-5.85-4.22-10.7-10.29-11.1h1.55v-21.85h-13.11v19.66h-8.74v-19.66h-13.11v21.85h1.13c-5.6,0.96-9.87,5.91-9.87,11.9
								v17.54C448.89,664.04,454.19,669.45,460.73,669.45z"/>
						</defs>
						<clipPath id="SVGID_00000175291864413265527260000013988385239615630011_">
							<use xlink:href="#SVGID_1_"  style="overflow:visible;"/>
						</clipPath>
					</g>
					<g>
						<defs>
							<path id="SVGID_00000104699885842485888600000012382417437890440070_" d="M674.19,1027.38h-79.55
								c-0.01,0-212.54-0.66-318.81-1h-1.45c-2.17,0.39-4.38,0.54-5.99-0.74c-1.66-1.32-2.07-3.54-2.21-6.95
								c-0.03-0.59-0.05-1.26-0.1-2.01c-0.21-3.61-0.21-7.48-0.02-11.5l0-3.07c-0.15-11.16-0.16-22.53-0.18-33.53v-0.24
								c-0.03-27.94-0.07-56.83,0.06-85.29c0.18-38.82,9.4-71.29,28.18-99.26c11.58-17.24,26.54-30.13,40.88-41.86
								c23.86-19.53,48.07-39.49,71.48-58.8l25.53-21.05c-4.2-3.47-8.4-6.91-12.57-10.35c-11.39-9.37-24.3-19.99-36.71-30.41
								c-7.55-6.33-15.34-12.64-22.87-18.74c-14.89-12.05-30.21-24.45-44.59-37.81c-31.2-28.98-47.55-66.68-48.6-112.05
								c-0.88-38.19-0.84-77-0.79-114.53c0.01-9.11-0.82-27.39-0.83-27.58l0-1.96c-0.02-2.99-0.05-6.73,3.18-10.09
								c1.99-2.06,4.72-3.2,7.69-3.2h400.4c8.59,0,9.96,2.63,9.96,11.07c0,13.74,0.14,27.6,0.27,41.02
								c0.28,28.84,0.57,58.67-0.42,88.1c-0.09,2.76-0.17,5.52-0.24,8.28c-0.44,16.3-0.89,33.14-5.18,49.56
								c-7.97,30.55-24.09,55.62-49.27,76.64c-23.34,19.48-46.95,38.98-69.79,57.84l-1.31,1.08c-11.38,9.4-22.76,18.8-34.13,28.21
								c-1.7,1.4-3.36,2.88-5.11,4.44l6.31,5.27c6.93,5.78,13.77,11.49,20.63,17.17c8.95,7.41,18.09,14.89,26.93,22.12l0.21,0.17
								c19.62,16.03,39.9,32.61,59.45,49.66c30.96,27,48.31,64.14,51.59,110.4c1.21,17.12,1.04,34.47,0.87,51.24l0,0.2
								c-0.08,7.78-0.16,15.82-0.09,23.7c0.13,16.93,0.1,34.13,0.06,50.77l0,1.71c-0.01,6.4-0.03,12.8-0.03,19.21
								C687.05,1021.04,681.28,1027.38,674.19,1027.38z M274.02,1022.38h1.82c106.27,0.34,318.81,1,318.81,1h79.55
								c4.88,0,8.86-4.55,8.86-10.15c0-6.41,0.02-12.81,0.03-19.21l0-1.71c0.04-16.63,0.07-33.82-0.06-50.73
								c-0.06-7.92,0.02-15.98,0.09-23.77l0-0.2c0.17-16.7,0.34-33.96-0.86-50.92c-3.2-45.17-20.1-81.39-50.23-107.67
								c-19.5-17.01-39.76-33.57-59.35-49.58l-0.21-0.17c-8.85-7.23-18-14.71-26.95-22.13c-6.86-5.68-13.71-11.4-20.64-17.18
								l-9.87-8.23l2.83-2.53c2-1.79,3.89-3.49,5.85-5.11c11.37-9.41,22.75-18.81,34.13-28.21l1.31-1.08
								c22.83-18.86,46.45-38.36,69.78-57.83c24.52-20.46,40.21-44.86,47.96-74.58c4.17-15.98,4.62-32.59,5.05-48.65
								c0.08-2.78,0.15-5.55,0.24-8.31c0.99-29.35,0.7-59.13,0.42-87.93c-0.13-13.42-0.27-27.3-0.27-41.06
								c0-7.07-0.23-7.07-5.96-7.07h-400.4c-1.88,0-3.59,0.7-4.81,1.97c-2.1,2.18-2.08,4.55-2.06,7.3v1.88
								c0.01,0.09,0.84,18.46,0.83,27.61c-0.04,37.57-0.08,76.36,0.79,114.5c1.02,44.25,16.94,81,47.32,109.21
								c14.28,13.26,29.55,25.62,44.31,37.57c7.62,6.17,15.42,12.48,23,18.84c12.39,10.4,25.29,21.02,36.68,30.38
								c4.8,3.95,9.61,7.91,14.44,11.89l1.84,1.52l-2.1,1.79l-27.14,22.38c-23.41,19.31-47.62,39.27-71.49,58.81
								c-14.11,11.54-28.82,24.21-40.09,41c-18.33,27.3-27.33,59.05-27.5,97.05c-0.13,28.45-0.1,57.34-0.06,85.27v0.24
								c0.01,10.98,0.03,22.34,0.18,33.51v3.19c-0.19,3.98-0.18,7.7,0.02,11.17c0.04,0.78,0.08,1.47,0.1,2.07
								c0.13,3.09,0.5,3.83,0.71,3.99c0.11,0.08,0.63,0.33,2.95-0.1L274.02,1022.38z"/>
						</defs>
						<clipPath id="SVGID_00000108285615910032476120000002189199284690617996_">
							<use xlink:href="#SVGID_00000104699885842485888600000012382417437890440070_"  style="overflow:visible;"/>
						</clipPath>
					</g>
				</g>
				<g>
					<g>
						<defs>
							<path id="SVGID_00000157276309713204936710000005803847735170358164_" d="M186.71,136.34v1005.68l-41.51,40.76V94.83
								 M240.58,190.96l-40.76-40.76v55.58v111.16v811.5l40.76-40.76 M756.95,136.34v1005.68l41.51,40.76V94.83 M703.08,1087.68
								l40.76,40.76V312V200.84V150.2l-40.76,40.76 M479.15,457.3c0,9.67,7.84,17.51,17.51,17.51s17.51-7.84,17.51-17.51
								c0-9.67-7.84-17.51-17.51-17.51S479.15,447.63,479.15,457.3z M528.74,457.93c0,9.67,7.84,17.51,17.51,17.51
								s17.51-7.84,17.51-17.51c0-9.67-7.84-17.51-17.51-17.51S528.74,448.25,528.74,457.93z M493.65,374.63
								c0,9.67,7.84,17.51,17.51,17.51c9.67,0,17.51-7.84,17.51-17.51c0-9.67-7.84-17.51-17.51-17.51
								C501.49,357.11,493.65,364.95,493.65,374.63z M416.79,374.63c0,9.67,7.84,17.51,17.51,17.51c9.67,0,17.51-7.84,17.51-17.51
								c0-9.67-7.84-17.51-17.51-17.51C424.63,357.11,416.79,364.95,416.79,374.63z M381.28,457.93c0,9.67,7.84,17.51,17.51,17.51
								c9.67,0,17.51-7.84,17.51-17.51c0-9.67-7.84-17.51-17.51-17.51C389.12,440.41,381.28,448.25,381.28,457.93z M455.01,540.27
								c0,9.67,7.84,17.51,17.51,17.51c9.67,0,17.51-7.84,17.51-17.51c0-9.67-7.84-17.51-17.51-17.51
								C462.85,522.76,455.01,530.6,455.01,540.27z M431.24,457.93c0,9.67,7.84,17.51,17.51,17.51c9.67,0,17.51-7.84,17.51-17.51
								c0-9.67-7.84-17.51-17.51-17.51C439.08,440.41,431.24,448.25,431.24,457.93z M510.71,387.96l-1.67-0.37l-12.27,54.79
								l1.67,0.37L510.71,387.96z M538.29,443.35l-90.33-63.26l-0.98,1.4l90.33,63.26L538.29,443.35z M503.35,387.25l-1.33-1.07
								l-47.68,59.02l1.33,1.07L503.35,387.25z M544.09,443.71l-24.12-56.27l-1.57,0.67l24.12,56.27L544.09,443.71z M498.11,381.48
								l-1-1.38l-89.7,64.95l1,1.38L498.11,381.48z M426.89,388.1l-1.58-0.64l-22.85,56.27l1.58,0.64L426.89,388.1z M490.7,444.57
								l-45.74-57.33l-1.33,1.07l45.74,57.33L490.7,444.57z M496.09,473.71l-1.63-0.51l-16.43,52.04l1.63,0.51L496.09,473.71z
								 M546.84,474.07l-1.17-1.24l-62.61,59.24l1.17,1.24L546.84,474.07z M467.07,525.21l-18.8-52.04l-1.61,0.58l18.8,52.04
								L467.07,525.21z M461.81,532.92l-60.93-58.72l-1.19,1.23l60.93,58.72L461.81,532.92z M449.59,442.38l-12.5-54.79l-1.66,0.38
								l12.5,54.79L449.59,442.38z M463.31,926.1c-1.74,1.91-3.79,2.33-5.94,0.97c-2.53-1.61-2.35-4.16-1.18-6.34
								c2.11-3.9,5.61-6.45,9.9-7.26c2.95-0.56,3.43-1.96,3.41-4.52c-0.11-14.71-0.09-29.42-0.16-44.13
								c-0.01-1.14,0.45-2.47-0.64-3.39c-1.1-0.93-13.51,0.17-14.61,1.33c-5.05,5.27-11.06,8.04-18.44,6.83
								c-2.93-0.48-5.59-1.8-5.19-5.46c0.41-3.8,3.21-4.31,6.26-3.72c3.92,0.76,7.76,0,9.75-3.17c1.91-3.04-2.46-4.39-3.68-6.73
								c-1.45-2.79-3.39-5.53-0.27-8.03c3.59-2.88,5.71-0.18,7.72,2.66c3.67,5.18,8.76,7.39,15.11,7.01
								c2.91-0.18,4.22-1.09,4.17-4.33c-0.19-12.29-0.18-24.58-0.04-36.87c0.03-3.09-0.55-4.11-3.99-3.76
								c-8.53,0.85-15.2-2.79-20.02-9.78c-1.76-2.55-3.53-5.64-0.33-8.02c3.36-2.5,6.14-0.58,7.75,2.76
								c2.06,4.28,6.44,4.82,10.08,6.14c2.64,0.96,6.1,0.12,6.31-3.62c0.37-6.59,0.83-13.21-3.46-19.17
								c-6.68-9.29-19.68-13.4-29.46-8.13c-10.29,5.55-16.01,15.98-12.6,27.45c0.87,2.93-0.05,4.94-2.1,5.75
								c-2.56,1.01-5.23,0.34-5.81-3.26c-0.18-1.16-1.01-2.28-0.99-3.41c0.05-3.3-2.16-2.86-4.11-2.61
								c-11.36,1.41-20.03,17.02-15.68,27.63c1.76,4.3,3.77,6.77,8.81,5.12c1.84-0.6,4.06-0.03,5.9-0.64
								c2.57-0.85,3.1-0.1,3.34,2.37c0.49,5.03-1.84,6.58-6.56,7.05c-22.32,2.23-32.39,27.27-19.67,43.34
								c2.84,3.59,6.2,8.59,10.62,7.54c4.84-1.14,6.28-6.83,6.34-11.96c0.04-3.23,1.85-5.04,4.86-4.91
								c3.22,0.14,4.36,2.71,4.22,5.57c-0.17,3.61-0.68,7.21-2.54,10.45c-1.04,1.82-1.97,3.52,0.44,5.18
								c1.95,1.34,3.03,3.15,1.67,5.67c-1.26,2.34-3.27,2.68-5.61,2.66c-5.11-0.03-9.83-1.78-14.57-3.52
								c-3.49,16.22,3.46,29.26,17.64,34.03c3.7,1.25,6.15,1.69,6-3.54c-0.08-3.02,1.27-5.87,2.64-8.57
								c1.15-2.28,3.19-3.3,5.53-2.25c2.27,1.02,3.15,3.16,2.2,5.57c-1.09,2.77-1.15,5.73-1.79,8.5
								c-2.26,9.8,3.49,20.49,13.56,25.22c11.65,5.47,20.09,3.19,29.17-4.39c1.29-1.08,2.07-2.42,2.07-4.16
								c-0.01-6.99,0-13.99,0-21.05C466.06,922.07,464.88,924.38,463.31,926.1z M476.05,941.74c0,2.06,0.67,3.5,2.16,5.18
								c6.07,6.84,15.55,9.08,25.59,6.48c7.74-2,17.05-13.6,17.33-20.96c0.19-4.89-0.09-9.58-2.13-14.16
								c-1.11-2.5-0.27-4.89,2.49-5.91c2.56-0.94,4.42,0.48,5.28,2.73c1.14,2.98,2.36,6.09,2.62,9.22c0.29,3.45,1.36,3.88,4.49,3.08
								c13.41-3.43,22.45-16.55,20.03-31.69c-0.49-3.09-1.45-2.92-3.84-2c-4.13,1.58-8.42,2.93-12.92,2.58
								c-4.27-0.33-6.87-4.92-3.93-6.91c4.07-2.75,2.5-4.87,1.13-7.94c-1.13-2.52-1.7-5.36-2.07-8.12
								c-0.44-3.32,0.55-6.39,4.48-6.46c3.38-0.06,4.99,2.41,4.77,5.7c-0.26,3.93,1.7,6.81,3.92,9.69c1.64,2.13,3.13,2.35,5.58,0.94
								c13.77-7.92,16.84-28.2,6.52-40.33c-5.48-6.44-12.06-9.54-20.15-10.17c-2.97-0.23-5.32-1.29-5.13-4.61
								c0.19-3.19,2.59-4.32,5.53-4.21c2.21,0.08,4.44,0.18,6.59,0.62c1.6,0.33,2.76,0.1,3.7-1.18c9.19-12.49,2.18-27.11-8.99-30.99
								c-4.83-1.68-8.94-2.39-9.57,4.59c-0.23,2.55-1.67,4.25-4.38,3.83c-2.93-0.46-3.84-2.45-3.17-5.32
								c0.16-0.66-0.58-1.53-0.42-2.2c2.69-11.48-1.76-19.26-11.71-25.15c-14.15-8.38-32.51,2.71-33.66,17.07
								c-0.69,8.61-0.34,17.32-0.08,25.98c0.2,6.77,10.57,15.54,17.32,14.67c6.83-0.87,12.47,0.9,17.6,5.53
								c2.46,2.23,4.25,3.86,1.65,6.98c-2.56,3.07-5.12,2.69-7.61,0c-3.21-3.46-7.07-4.25-11.75-3.06c0.46,2.25,0.59,4.52,1.4,6.52
								c1.29,3.16-1.21,4.76-2.54,6.65c-1.14,1.61-3.28,1.07-5.04,0.44c-2.82-1-2.38-3.36-2.21-5.54c0.39-4.92-1.1-9.14-4.6-12.61
								c-0.95-0.95-1.83-2.54-3.35-2.09c-1.86,0.55-0.94,2.41-0.95,3.66c-0.05,20.35,0.06,40.7-0.12,61.05
								c-0.03,3.49,1.34,5.05,4.3,6.17c7.29,2.75,12.84-1.33,12.89-9.72c0.02-3.47,0.89-6.45,4.86-6.48c4-0.04,4.03,3.35,3.93,6.16
								c-0.1,2.69-0.71,5.35-1.09,7.98c1.88,0.52,2.79-0.96,4.13-1.31c2.26-0.59,4.08,0.02,5.06,2.08c0.82,1.71,0.71,3.51-0.88,4.96
								c-6.24,5.68-23.72,9.19-33.09,4.21C476.06,919.21,476.07,930.47,476.05,941.74z M460.73,669.45h7.82v27.79
								c0,2.75,2.38,4.98,5.32,4.98h2.33c3.02,0,5.46-2.29,5.46-5.12v-27.65h7.25c0,0,12.83-6.73,12.42-13.26v-17.16
								c0.41-5.85-4.22-10.7-10.29-11.1h1.55v-21.85h-13.11v19.66h-8.74v-19.66h-13.11v21.85h1.13c-5.6,0.96-9.87,5.91-9.87,11.9
								v17.54C448.89,664.04,454.19,669.45,460.73,669.45z"/>
						</defs>
						<clipPath id="SVGID_00000168819880508968994120000010575962949302285443_">
							<use xlink:href="#SVGID_00000157276309713204936710000005803847735170358164_"  style="overflow:visible;"/>
						</clipPath>
						<g style="clip-path:url(#SVGID_00000168819880508968994120000010575962949302285443_);">
							<rect x="-176.64" y="956.18" class="st1" width="1377.2" height="303.76"/>
							<rect x="-176.64" y="759.83" class="st2" width="1377.2" height="195.98"/>
							<rect x="-176.64" y="557.79" width="1377.2" height="202.04"/>
							<rect x="-176.64" y="355.4" class="st3" width="1377.2" height="202.38"/>
							<rect x="-176.64" y="6.75" class="st4" width="1377.2" height="348.66"/>
							
						</g>
					</g>
					<g>
						<defs>
							<path id="SVGID_00000123422942575060604600000000064517928825413771_" d="M674.19,1027.38h-79.55
								c-0.01,0-212.54-0.66-318.81-1h-1.45c-2.17,0.39-4.38,0.54-5.99-0.74c-1.66-1.32-2.07-3.54-2.21-6.95
								c-0.03-0.59-0.05-1.26-0.1-2.01c-0.21-3.61-0.21-7.48-0.02-11.5l0-3.07c-0.15-11.16-0.16-22.53-0.18-33.53v-0.24
								c-0.03-27.94-0.07-56.83,0.06-85.29c0.18-38.82,9.4-71.29,28.18-99.26c11.58-17.24,26.54-30.13,40.88-41.86
								c23.86-19.53,48.07-39.49,71.48-58.8l25.53-21.05c-4.2-3.47-8.4-6.91-12.57-10.35c-11.39-9.37-24.3-19.99-36.71-30.41
								c-7.55-6.33-15.34-12.64-22.87-18.74c-14.89-12.05-30.21-24.45-44.59-37.81c-31.2-28.98-47.55-66.68-48.6-112.05
								c-0.88-38.19-0.84-77-0.79-114.53c0.01-9.11-0.82-27.39-0.83-27.58l0-1.96c-0.02-2.99-0.05-6.73,3.18-10.09
								c1.99-2.06,4.72-3.2,7.69-3.2h400.4c8.59,0,9.96,2.63,9.96,11.07c0,13.74,0.14,27.6,0.27,41.02
								c0.28,28.84,0.57,58.67-0.42,88.1c-0.09,2.76-0.17,5.52-0.24,8.28c-0.44,16.3-0.89,33.14-5.18,49.56
								c-7.97,30.55-24.09,55.62-49.27,76.64c-23.34,19.48-46.95,38.98-69.79,57.84l-1.31,1.08c-11.38,9.4-22.76,18.8-34.13,28.21
								c-1.7,1.4-3.36,2.88-5.11,4.44l6.31,5.27c6.93,5.78,13.77,11.49,20.63,17.17c8.95,7.41,18.09,14.89,26.93,22.12l0.21,0.17
								c19.62,16.03,39.9,32.61,59.45,49.66c30.96,27,48.31,64.14,51.59,110.4c1.21,17.12,1.04,34.47,0.87,51.24l0,0.2
								c-0.08,7.78-0.16,15.82-0.09,23.7c0.13,16.93,0.1,34.13,0.06,50.77l0,1.71c-0.01,6.4-0.03,12.8-0.03,19.21
								C687.05,1021.04,681.28,1027.38,674.19,1027.38z M274.02,1022.38h1.82c106.27,0.34,318.81,1,318.81,1h79.55
								c4.88,0,8.86-4.55,8.86-10.15c0-6.41,0.02-12.81,0.03-19.21l0-1.71c0.04-16.63,0.07-33.82-0.06-50.73
								c-0.06-7.92,0.02-15.98,0.09-23.77l0-0.2c0.17-16.7,0.34-33.96-0.86-50.92c-3.2-45.17-20.1-81.39-50.23-107.67
								c-19.5-17.01-39.76-33.57-59.35-49.58l-0.21-0.17c-8.85-7.23-18-14.71-26.95-22.13c-6.86-5.68-13.71-11.4-20.64-17.18
								l-9.87-8.23l2.83-2.53c2-1.79,3.89-3.49,5.85-5.11c11.37-9.41,22.75-18.81,34.13-28.21l1.31-1.08
								c22.83-18.86,46.45-38.36,69.78-57.83c24.52-20.46,40.21-44.86,47.96-74.58c4.17-15.98,4.62-32.59,5.05-48.65
								c0.08-2.78,0.15-5.55,0.24-8.31c0.99-29.35,0.7-59.13,0.42-87.93c-0.13-13.42-0.27-27.3-0.27-41.06
								c0-7.07-0.23-7.07-5.96-7.07h-400.4c-1.88,0-3.59,0.7-4.81,1.97c-2.1,2.18-2.08,4.55-2.06,7.3v1.88
								c0.01,0.09,0.84,18.46,0.83,27.61c-0.04,37.57-0.08,76.36,0.79,114.5c1.02,44.25,16.94,81,47.32,109.21
								c14.28,13.26,29.55,25.62,44.31,37.57c7.62,6.17,15.42,12.48,23,18.84c12.39,10.4,25.29,21.02,36.68,30.38
								c4.8,3.95,9.61,7.91,14.44,11.89l1.84,1.52l-2.1,1.79l-27.14,22.38c-23.41,19.31-47.62,39.27-71.49,58.81
								c-14.11,11.54-28.82,24.21-40.09,41c-18.33,27.3-27.33,59.05-27.5,97.05c-0.13,28.45-0.1,57.34-0.06,85.27v0.24
								c0.01,10.98,0.03,22.34,0.18,33.51v3.19c-0.19,3.98-0.18,7.7,0.02,11.17c0.04,0.78,0.08,1.47,0.1,2.07
								c0.13,3.09,0.5,3.83,0.71,3.99c0.11,0.08,0.63,0.33,2.95-0.1L274.02,1022.38z"/>
						</defs>
						<clipPath id="SVGID_00000001654274828720990410000000673290793316790679_">
							<use xlink:href="#SVGID_00000123422942575060604600000000064517928825413771_"  style="overflow:visible;"/>
						</clipPath>
						<g style="clip-path:url(#SVGID_00000001654274828720990410000000673290793316790679_);">
							<rect x="-212.45" y="956.18" class="st1" width="1377.2" height="303.76"/>
							<rect x="-212.45" y="759.83" class="st2" width="1377.2" height="195.98"/>
							<rect x="-212.45" y="557.79" width="1377.2" height="202.04"/>
							<rect x="-212.45" y="355.4" class="st3" width="1377.2" height="202.38"/>
							<rect x="-212.45" y="6.75" class="st4" width="1377.2" height="348.66"/>
						</g>
					</g>
				</g>
				<g>
					<g>
						<defs>
							<path id="SVGID_00000080208304723095063020000009673434310790579375_" d="M186.71,136.34v1005.68l-41.51,40.76V94.83
								 M240.58,190.96l-40.76-40.76v55.58v111.16v811.5l40.76-40.76 M756.95,136.34v1005.68l41.51,40.76V94.83 M703.08,1087.68
								l40.76,40.76V312V200.84V150.2l-40.76,40.76 M479.15,457.3c0,9.67,7.84,17.51,17.51,17.51s17.51-7.84,17.51-17.51
								c0-9.67-7.84-17.51-17.51-17.51S479.15,447.63,479.15,457.3z M528.74,457.93c0,9.67,7.84,17.51,17.51,17.51
								s17.51-7.84,17.51-17.51c0-9.67-7.84-17.51-17.51-17.51S528.74,448.25,528.74,457.93z M493.65,374.63
								c0,9.67,7.84,17.51,17.51,17.51c9.67,0,17.51-7.84,17.51-17.51c0-9.67-7.84-17.51-17.51-17.51
								C501.49,357.11,493.65,364.95,493.65,374.63z M416.79,374.63c0,9.67,7.84,17.51,17.51,17.51c9.67,0,17.51-7.84,17.51-17.51
								c0-9.67-7.84-17.51-17.51-17.51C424.63,357.11,416.79,364.95,416.79,374.63z M381.28,457.93c0,9.67,7.84,17.51,17.51,17.51
								c9.67,0,17.51-7.84,17.51-17.51c0-9.67-7.84-17.51-17.51-17.51C389.12,440.41,381.28,448.25,381.28,457.93z M455.01,540.27
								c0,9.67,7.84,17.51,17.51,17.51c9.67,0,17.51-7.84,17.51-17.51c0-9.67-7.84-17.51-17.51-17.51
								C462.85,522.76,455.01,530.6,455.01,540.27z M431.24,457.93c0,9.67,7.84,17.51,17.51,17.51c9.67,0,17.51-7.84,17.51-17.51
								c0-9.67-7.84-17.51-17.51-17.51C439.08,440.41,431.24,448.25,431.24,457.93z M510.71,387.96l-1.67-0.37l-12.27,54.79
								l1.67,0.37L510.71,387.96z M538.29,443.35l-90.33-63.26l-0.98,1.4l90.33,63.26L538.29,443.35z M503.35,387.25l-1.33-1.07
								l-47.68,59.02l1.33,1.07L503.35,387.25z M544.09,443.71l-24.12-56.27l-1.57,0.67l24.12,56.27L544.09,443.71z M498.11,381.48
								l-1-1.38l-89.7,64.95l1,1.38L498.11,381.48z M426.89,388.1l-1.58-0.64l-22.85,56.27l1.58,0.64L426.89,388.1z M490.7,444.57
								l-45.74-57.33l-1.33,1.07l45.74,57.33L490.7,444.57z M496.09,473.71l-1.63-0.51l-16.43,52.04l1.63,0.51L496.09,473.71z
								 M546.84,474.07l-1.17-1.24l-62.61,59.24l1.17,1.24L546.84,474.07z M467.07,525.21l-18.8-52.04l-1.61,0.58l18.8,52.04
								L467.07,525.21z M461.81,532.92l-60.93-58.72l-1.19,1.23l60.93,58.72L461.81,532.92z M449.59,442.38l-12.5-54.79l-1.66,0.38
								l12.5,54.79L449.59,442.38z M463.31,926.1c-1.74,1.91-3.79,2.33-5.94,0.97c-2.53-1.61-2.35-4.16-1.18-6.34
								c2.11-3.9,5.61-6.45,9.9-7.26c2.95-0.56,3.43-1.96,3.41-4.52c-0.11-14.71-0.09-29.42-0.16-44.13
								c-0.01-1.14,0.45-2.47-0.64-3.39c-1.1-0.93-13.51,0.17-14.61,1.33c-5.05,5.27-11.06,8.04-18.44,6.83
								c-2.93-0.48-5.59-1.8-5.19-5.46c0.41-3.8,3.21-4.31,6.26-3.72c3.92,0.76,7.76,0,9.75-3.17c1.91-3.04-2.46-4.39-3.68-6.73
								c-1.45-2.79-3.39-5.53-0.27-8.03c3.59-2.88,5.71-0.18,7.72,2.66c3.67,5.18,8.76,7.39,15.11,7.01
								c2.91-0.18,4.22-1.09,4.17-4.33c-0.19-12.29-0.18-24.58-0.04-36.87c0.03-3.09-0.55-4.11-3.99-3.76
								c-8.53,0.85-15.2-2.79-20.02-9.78c-1.76-2.55-3.53-5.64-0.33-8.02c3.36-2.5,6.14-0.58,7.75,2.76
								c2.06,4.28,6.44,4.82,10.08,6.14c2.64,0.96,6.1,0.12,6.31-3.62c0.37-6.59,0.83-13.21-3.46-19.17
								c-6.68-9.29-19.68-13.4-29.46-8.13c-10.29,5.55-16.01,15.98-12.6,27.45c0.87,2.93-0.05,4.94-2.1,5.75
								c-2.56,1.01-5.23,0.34-5.81-3.26c-0.18-1.16-1.01-2.28-0.99-3.41c0.05-3.3-2.16-2.86-4.11-2.61
								c-11.36,1.41-20.03,17.02-15.68,27.63c1.76,4.3,3.77,6.77,8.81,5.12c1.84-0.6,4.06-0.03,5.9-0.64
								c2.57-0.85,3.1-0.1,3.34,2.37c0.49,5.03-1.84,6.58-6.56,7.05c-22.32,2.23-32.39,27.27-19.67,43.34
								c2.84,3.59,6.2,8.59,10.62,7.54c4.84-1.14,6.28-6.83,6.34-11.96c0.04-3.23,1.85-5.04,4.86-4.91
								c3.22,0.14,4.36,2.71,4.22,5.57c-0.17,3.61-0.68,7.21-2.54,10.45c-1.04,1.82-1.97,3.52,0.44,5.18
								c1.95,1.34,3.03,3.15,1.67,5.67c-1.26,2.34-3.27,2.68-5.61,2.66c-5.11-0.03-9.83-1.78-14.57-3.52
								c-3.49,16.22,3.46,29.26,17.64,34.03c3.7,1.25,6.15,1.69,6-3.54c-0.08-3.02,1.27-5.87,2.64-8.57
								c1.15-2.28,3.19-3.3,5.53-2.25c2.27,1.02,3.15,3.16,2.2,5.57c-1.09,2.77-1.15,5.73-1.79,8.5
								c-2.26,9.8,3.49,20.49,13.56,25.22c11.65,5.47,20.09,3.19,29.17-4.39c1.29-1.08,2.07-2.42,2.07-4.16
								c-0.01-6.99,0-13.99,0-21.05C466.06,922.07,464.88,924.38,463.31,926.1z M476.05,941.74c0,2.06,0.67,3.5,2.16,5.18
								c6.07,6.84,15.55,9.08,25.59,6.48c7.74-2,17.05-13.6,17.33-20.96c0.19-4.89-0.09-9.58-2.13-14.16
								c-1.11-2.5-0.27-4.89,2.49-5.91c2.56-0.94,4.42,0.48,5.28,2.73c1.14,2.98,2.36,6.09,2.62,9.22c0.29,3.45,1.36,3.88,4.49,3.08
								c13.41-3.43,22.45-16.55,20.03-31.69c-0.49-3.09-1.45-2.92-3.84-2c-4.13,1.58-8.42,2.93-12.92,2.58
								c-4.27-0.33-6.87-4.92-3.93-6.91c4.07-2.75,2.5-4.87,1.13-7.94c-1.13-2.52-1.7-5.36-2.07-8.12
								c-0.44-3.32,0.55-6.39,4.48-6.46c3.38-0.06,4.99,2.41,4.77,5.7c-0.26,3.93,1.7,6.81,3.92,9.69c1.64,2.13,3.13,2.35,5.58,0.94
								c13.77-7.92,16.84-28.2,6.52-40.33c-5.48-6.44-12.06-9.54-20.15-10.17c-2.97-0.23-5.32-1.29-5.13-4.61
								c0.19-3.19,2.59-4.32,5.53-4.21c2.21,0.08,4.44,0.18,6.59,0.62c1.6,0.33,2.76,0.1,3.7-1.18c9.19-12.49,2.18-27.11-8.99-30.99
								c-4.83-1.68-8.94-2.39-9.57,4.59c-0.23,2.55-1.67,4.25-4.38,3.83c-2.93-0.46-3.84-2.45-3.17-5.32
								c0.16-0.66-0.58-1.53-0.42-2.2c2.69-11.48-1.76-19.26-11.71-25.15c-14.15-8.38-32.51,2.71-33.66,17.07
								c-0.69,8.61-0.34,17.32-0.08,25.98c0.2,6.77,10.57,15.54,17.32,14.67c6.83-0.87,12.47,0.9,17.6,5.53
								c2.46,2.23,4.25,3.86,1.65,6.98c-2.56,3.07-5.12,2.69-7.61,0c-3.21-3.46-7.07-4.25-11.75-3.06c0.46,2.25,0.59,4.52,1.4,6.52
								c1.29,3.16-1.21,4.76-2.54,6.65c-1.14,1.61-3.28,1.07-5.04,0.44c-2.82-1-2.38-3.36-2.21-5.54c0.39-4.92-1.1-9.14-4.6-12.61
								c-0.95-0.95-1.83-2.54-3.35-2.09c-1.86,0.55-0.94,2.41-0.95,3.66c-0.05,20.35,0.06,40.7-0.12,61.05
								c-0.03,3.49,1.34,5.05,4.3,6.17c7.29,2.75,12.84-1.33,12.89-9.72c0.02-3.47,0.89-6.45,4.86-6.48c4-0.04,4.03,3.35,3.93,6.16
								c-0.1,2.69-0.71,5.35-1.09,7.98c1.88,0.52,2.79-0.96,4.13-1.31c2.26-0.59,4.08,0.02,5.06,2.08c0.82,1.71,0.71,3.51-0.88,4.96
								c-6.24,5.68-23.72,9.19-33.09,4.21C476.06,919.21,476.07,930.47,476.05,941.74z M460.73,669.45h7.82v27.79
								c0,2.75,2.38,4.98,5.32,4.98h2.33c3.02,0,5.46-2.29,5.46-5.12v-27.65h7.25c0,0,12.83-6.73,12.42-13.26v-17.16
								c0.41-5.85-4.22-10.7-10.29-11.1h1.55v-21.85h-13.11v19.66h-8.74v-19.66h-13.11v21.85h1.13c-5.6,0.96-9.87,5.91-9.87,11.9
								v17.54C448.89,664.04,454.19,669.45,460.73,669.45z"/>
						</defs>
						<clipPath id="SVGID_00000057859404904627836840000013730602495198880923_">
							<use xlink:href="#SVGID_00000080208304723095063020000009673434310790579375_"  style="overflow:visible;"/>
						</clipPath>
					</g>
					<g>
						<defs>
							<path id="SVGID_00000149358798631918677080000013002981070459748758_" d="M674.19,1027.38h-79.55
								c-0.01,0-212.54-0.66-318.81-1h-1.45c-2.17,0.39-4.38,0.54-5.99-0.74c-1.66-1.32-2.07-3.54-2.21-6.95
								c-0.03-0.59-0.05-1.26-0.1-2.01c-0.21-3.61-0.21-7.48-0.02-11.5l0-3.07c-0.15-11.16-0.16-22.53-0.18-33.53v-0.24
								c-0.03-27.94-0.07-56.83,0.06-85.29c0.18-38.82,9.4-71.29,28.18-99.26c11.58-17.24,26.54-30.13,40.88-41.86
								c23.86-19.53,48.07-39.49,71.48-58.8l25.53-21.05c-4.2-3.47-8.4-6.91-12.57-10.35c-11.39-9.37-24.3-19.99-36.71-30.41
								c-7.55-6.33-15.34-12.64-22.87-18.74c-14.89-12.05-30.21-24.45-44.59-37.81c-31.2-28.98-47.55-66.68-48.6-112.05
								c-0.88-38.19-0.84-77-0.79-114.53c0.01-9.11-0.82-27.39-0.83-27.58l0-1.96c-0.02-2.99-0.05-6.73,3.18-10.09
								c1.99-2.06,4.72-3.2,7.69-3.2h400.4c8.59,0,9.96,2.63,9.96,11.07c0,13.74,0.14,27.6,0.27,41.02
								c0.28,28.84,0.57,58.67-0.42,88.1c-0.09,2.76-0.17,5.52-0.24,8.28c-0.44,16.3-0.89,33.14-5.18,49.56
								c-7.97,30.55-24.09,55.62-49.27,76.64c-23.34,19.48-46.95,38.98-69.79,57.84l-1.31,1.08c-11.38,9.4-22.76,18.8-34.13,28.21
								c-1.7,1.4-3.36,2.88-5.11,4.44l6.31,5.27c6.93,5.78,13.77,11.49,20.63,17.17c8.95,7.41,18.09,14.89,26.93,22.12l0.21,0.17
								c19.62,16.03,39.9,32.61,59.45,49.66c30.96,27,48.31,64.14,51.59,110.4c1.21,17.12,1.04,34.47,0.87,51.24l0,0.2
								c-0.08,7.78-0.16,15.82-0.09,23.7c0.13,16.93,0.1,34.13,0.06,50.77l0,1.71c-0.01,6.4-0.03,12.8-0.03,19.21
								C687.05,1021.04,681.28,1027.38,674.19,1027.38z M274.02,1022.38h1.82c106.27,0.34,318.81,1,318.81,1h79.55
								c4.88,0,8.86-4.55,8.86-10.15c0-6.41,0.02-12.81,0.03-19.21l0-1.71c0.04-16.63,0.07-33.82-0.06-50.73
								c-0.06-7.92,0.02-15.98,0.09-23.77l0-0.2c0.17-16.7,0.34-33.96-0.86-50.92c-3.2-45.17-20.1-81.39-50.23-107.67
								c-19.5-17.01-39.76-33.57-59.35-49.58l-0.21-0.17c-8.85-7.23-18-14.71-26.95-22.13c-6.86-5.68-13.71-11.4-20.64-17.18
								l-9.87-8.23l2.83-2.53c2-1.79,3.89-3.49,5.85-5.11c11.37-9.41,22.75-18.81,34.13-28.21l1.31-1.08
								c22.83-18.86,46.45-38.36,69.78-57.83c24.52-20.46,40.21-44.86,47.96-74.58c4.17-15.98,4.62-32.59,5.05-48.65
								c0.08-2.78,0.15-5.55,0.24-8.31c0.99-29.35,0.7-59.13,0.42-87.93c-0.13-13.42-0.27-27.3-0.27-41.06
								c0-7.07-0.23-7.07-5.96-7.07h-400.4c-1.88,0-3.59,0.7-4.81,1.97c-2.1,2.18-2.08,4.55-2.06,7.3v1.88
								c0.01,0.09,0.84,18.46,0.83,27.61c-0.04,37.57-0.08,76.36,0.79,114.5c1.02,44.25,16.94,81,47.32,109.21
								c14.28,13.26,29.55,25.62,44.31,37.57c7.62,6.17,15.42,12.48,23,18.84c12.39,10.4,25.29,21.02,36.68,30.38
								c4.8,3.95,9.61,7.91,14.44,11.89l1.84,1.52l-2.1,1.79l-27.14,22.38c-23.41,19.31-47.62,39.27-71.49,58.81
								c-14.11,11.54-28.82,24.21-40.09,41c-18.33,27.3-27.33,59.05-27.5,97.05c-0.13,28.45-0.1,57.34-0.06,85.27v0.24
								c0.01,10.98,0.03,22.34,0.18,33.51v3.19c-0.19,3.98-0.18,7.7,0.02,11.17c0.04,0.78,0.08,1.47,0.1,2.07
								c0.13,3.09,0.5,3.83,0.71,3.99c0.11,0.08,0.63,0.33,2.95-0.1L274.02,1022.38z"/>
						</defs>
						<clipPath id="SVGID_00000075139650854290101620000006416370413199385263_">
							<use xlink:href="#SVGID_00000149358798631918677080000013002981070459748758_"  style="overflow:visible;"/>
						</clipPath>
					</g>
				</g>
			</g>
		</g>
	</g>
</switch>

<path class="st5" d="M472,704 C444,684 430,660 430,634 C430,615 442,605 456,605 C465,605 469,612 472,621 C475,612 479,605 488,605 C502,605 514,615 514,634 C514,660 500,684 472,704 Z"/>
</svg>
